<svg width="39" height="28" viewBox="0 0 39 28" fill="none" xmlns="http://www.w3.org/2000/svg">
<rect x="0.15" y="0.15" width="38.7" height="27.7" rx="2.85" fill="white" stroke="black" stroke-width="0.3"/>
<path d="M23.9 16.125V12.1875H27.8V9.5625L33 14.1562L27.8 18.75V16.125H23.9ZM22.6 7.85625V9.5625H7V7.85625L14.8 3L22.6 7.85625ZM13.5 10.875H16.1V17.4375H13.5V10.875ZM8.3 10.875H10.9V17.4375H8.3V10.875ZM21.3 10.875V14.1562L18.7 16.5188V10.875H21.3ZM16.23 18.75L15.45 19.4062L17.66 21.375H7V18.75H16.23ZM26.5 17.4375V21.375H22.6V24L17.4 19.4062L22.6 14.8125V17.4375H26.5Z" fill="black"/>
</svg>
