<svg width="20" height="20" viewBox="0 0 20 20" fill="none" xmlns="http://www.w3.org/2000/svg">
<g id="Group">
<path id="Vector" d="M4.20703 5.70312H3.20703C2.6766 5.70313 2.16789 5.91384 1.79282 6.28891C1.41774 6.66398 1.20703 7.17269 1.20703 7.70312V16.7031C1.20703 17.2336 1.41774 17.7423 1.79282 18.1173C2.16789 18.4924 2.6766 18.7031 3.20703 18.7031H12.207C12.7375 18.7031 13.2462 18.4924 13.6212 18.1173C13.9963 17.7423 14.207 17.2336 14.207 16.7031V15.7031" stroke="black" stroke-width="2" stroke-linecap="round" stroke-linejoin="round"/>
<path id="Vector_2" d="M13.207 3.70323L16.207 6.70323M17.592 5.28823C17.9859 4.89439 18.2071 4.36022 18.2071 3.80323C18.2071 3.24625 17.9859 2.71208 17.592 2.31823C17.1982 1.92439 16.664 1.70313 16.107 1.70312C15.55 1.70312 15.0159 1.92439 14.622 2.31823L6.20703 10.7032V13.7032H9.20703L17.592 5.28823Z" stroke="black" stroke-width="2" stroke-linecap="round" stroke-linejoin="round"/>
</g>
</svg>
