<svg width="13" height="17" viewBox="0 0 13 17" fill="none" xmlns="http://www.w3.org/2000/svg">
<path d="M2.95898 12.7498C1.66344 13.0417 0.833984 13.4893 0.833984 13.9923C0.833984 14.8706 3.37123 15.5832 6.50065 15.5832C9.63007 15.5832 12.1673 14.8706 12.1673 13.9923C12.1673 13.4893 11.3379 13.0417 10.0423 12.7498M8.27148 6.37484C8.27148 6.84449 8.08491 7.29491 7.75282 7.62701C7.42072 7.9591 6.97031 8.14567 6.50065 8.14567C6.031 8.14567 5.58058 7.9591 5.24848 7.62701C4.91639 7.29491 4.72982 6.84449 4.72982 6.37484C4.72982 5.90518 4.91639 5.45476 5.24848 5.12267C5.58058 4.79057 6.031 4.604 6.50065 4.604C6.97031 4.604 7.42072 4.79057 7.75282 5.12267C8.08491 5.45476 8.27148 5.90518 8.27148 6.37484Z" stroke="black" stroke-opacity="0.5" stroke-width="1.5" stroke-linecap="round" stroke-linejoin="round"/>
<path d="M7.39006 12.3914C7.15081 12.6216 6.8317 12.7502 6.49969 12.7502C6.16768 12.7502 5.84857 12.6216 5.60931 12.3914C3.42127 10.2714 0.489481 7.90342 1.9189 4.46517C2.69311 2.6058 4.54894 1.4165 6.49969 1.4165C8.45044 1.4165 10.307 2.6065 11.0805 4.46517C12.5085 7.89846 9.58377 10.2785 7.39006 12.3914Z" stroke="black" stroke-opacity="0.5" stroke-width="1.5" stroke-linecap="round" stroke-linejoin="round"/>
</svg>
