<svg width="109" height="109" viewBox="0 0 109 109" fill="none" xmlns="http://www.w3.org/2000/svg">
<circle cx="54.5" cy="54.5" r="54.5" fill="#CA1B1B" fill-opacity="0.03"/>
<circle cx="54.5" cy="54.5" r="54" stroke="#CA1B1B" stroke-opacity="0.19" stroke-dasharray="2 2"/>
<circle cx="54.5" cy="54.5" r="39.5" fill="#FFF0F0"/>
<path d="M47.5007 41.6673C48.4211 41.6673 49.1673 40.9211 49.1673 40.0007C49.1673 39.0802 48.4211 38.334 47.5007 38.334H45.0007C41.3188 38.334 38.334 41.3188 38.334 45.0007V65.0007C38.334 68.6826 41.3188 71.6673 45.0007 71.6673H47.5007C48.4211 71.6673 49.1673 70.9211 49.1673 70.0007C49.1673 69.0802 48.4211 68.334 47.5007 68.334H45.0007C43.1597 68.334 41.6673 66.8416 41.6673 65.0007L41.6673 45.0007C41.6673 43.1597 43.1597 41.6673 45.0007 41.6673H47.5007Z" fill="#CA1B1B"/>
<path d="M72.8458 56.1792C73.4967 55.5283 73.4967 54.473 72.8458 53.8221L66.1792 47.1555C65.5283 46.5046 64.473 46.5046 63.8221 47.1555C63.1713 47.8063 63.1713 48.8616 63.8221 49.5125L67.6436 53.334L48.334 53.334C47.4135 53.334 46.6673 54.0802 46.6673 55.0007C46.6673 55.9211 47.4135 56.6673 48.334 56.6673L67.6436 56.6673L63.8221 60.4888C63.1713 61.1397 63.1713 62.195 63.8221 62.8458C64.473 63.4967 65.5283 63.4967 66.1792 62.8458L72.8458 56.1792Z" fill="#CA1B1B"/>
</svg>
