<svg width="17" height="15" viewBox="0 0 17 15" fill="none" xmlns="http://www.w3.org/2000/svg">
<path d="M16.9922 7.2746C16.9922 7.6543 16.71 7.96809 16.344 8.01775L16.2422 8.0246L3.05819 8.024L7.82117 12.7675C8.1147 13.0598 8.11572 13.5347 7.82346 13.8282C7.55777 14.095 7.14116 14.1201 6.84708 13.9029L6.7628 13.8305L0.712801 7.80647C0.67411 7.76795 0.640504 7.72625 0.611982 7.68222C0.603926 7.66897 0.595726 7.65541 0.587952 7.64158C0.580801 7.62972 0.574339 7.61741 0.568243 7.60497C0.559776 7.58686 0.551504 7.56815 0.543993 7.54906C0.53789 7.53434 0.532795 7.52002 0.528147 7.50559C0.522621 7.4877 0.517252 7.46863 0.512634 7.44927C0.509201 7.43575 0.506482 7.42275 0.50411 7.40969C0.500775 7.39025 0.497936 7.37015 0.495911 7.3498C0.494162 7.33428 0.493109 7.31891 0.492527 7.30352C0.492377 7.29418 0.492188 7.28441 0.492188 7.2746L0.492563 7.24555C0.493138 7.23083 0.494143 7.21612 0.495581 7.20145L0.492188 7.2746C0.492188 7.22727 0.496571 7.18097 0.504955 7.13607C0.5069 7.12535 0.509216 7.11434 0.511782 7.10338C0.517109 7.0808 0.523266 7.05906 0.530355 7.03774C0.533835 7.02715 0.537889 7.01584 0.542221 7.00461C0.550985 6.98204 0.560512 6.96053 0.570992 6.93957C0.57586 6.92972 0.581313 6.9194 0.587023 6.90919C0.596395 6.89253 0.606051 6.8767 0.616261 6.86127C0.623464 6.85035 0.631441 6.83899 0.639771 6.8278L0.646261 6.81915C0.666467 6.79276 0.688388 6.76774 0.711857 6.74427L0.712757 6.74357L6.76276 0.718573C7.05626 0.426287 7.53113 0.42727 7.82341 0.720769C8.08913 0.987586 8.11247 1.4043 7.89401 1.69746L7.82122 1.78143L3.06019 6.524L16.2422 6.5246C16.6564 6.5246 16.9922 6.86039 16.9922 7.2746Z" fill="black"/>
</svg>
