<svg width="109" height="109" viewBox="0 0 109 109" fill="none" xmlns="http://www.w3.org/2000/svg">
<circle cx="54.5" cy="54.5" r="54.5" fill="#CA1B1B" fill-opacity="0.03"/>
<circle cx="54.5" cy="54.5" r="54" stroke="#CA1B1B" stroke-opacity="0.19" stroke-dasharray="2 2"/>
<circle cx="54.5" cy="54.5" r="39.5" fill="#FFF0F0"/>
<path fill-rule="evenodd" clip-rule="evenodd" d="M58.5356 54.9987L69.2681 44.2662C70.2456 43.2887 70.2456 41.7087 69.2681 40.7312C68.2906 39.7537 66.7106 39.7537 65.7331 40.7312L55.0006 51.4637L44.2681 40.7312C43.2906 39.7537 41.7106 39.7537 40.7331 40.7312C39.7556 41.7087 39.7556 43.2887 40.7331 44.2662L51.4656 54.9987L40.7331 65.7312C39.7556 66.7087 39.7556 68.2887 40.7331 69.2662C41.2206 69.7537 41.8606 69.9987 42.5006 69.9987C43.1406 69.9987 43.7806 69.7537 44.2681 69.2662L55.0006 58.5337L65.7331 69.2662C66.2206 69.7537 66.8606 69.9987 67.5006 69.9987C68.1406 69.9987 68.7806 69.7537 69.2681 69.2662C70.2456 68.2887 70.2456 66.7087 69.2681 65.7312L58.5356 54.9987Z" fill="#CA1B1B"/>
</svg>
