<svg width="186" height="186" viewBox="0 0 186 186" fill="none" xmlns="http://www.w3.org/2000/svg">
<path d="M179.456 92.9997C182.328 89.6546 184.341 85.6591 185.32 81.3598C186.299 77.0605 186.214 72.5874 185.073 68.3283C183.931 64.0693 181.768 60.1531 178.771 56.9193C175.773 53.6856 172.032 51.2321 167.872 49.7715C168.687 45.4381 168.432 40.9712 167.13 36.7583C165.828 32.5455 163.518 28.714 160.4 25.5962C157.281 22.4784 153.45 20.1686 149.237 18.867C145.024 17.5655 140.557 17.3116 136.223 18.1273C134.764 13.966 132.311 10.2237 129.077 7.22555C125.843 4.22735 121.927 2.0638 117.667 0.922735C113.407 -0.21833 108.933 -0.302416 104.634 0.677778C100.334 1.65797 96.3392 3.67282 92.995 6.54738C89.6499 3.6748 85.6544 1.66177 81.3551 0.682926C77.0558 -0.295914 72.5826 -0.210999 68.3236 0.9303C64.0646 2.0716 60.1483 4.23481 56.9146 7.23228C53.6809 10.2298 51.2274 13.971 49.7668 18.1313C45.4337 17.3169 40.9672 17.572 36.7549 18.8744C32.5426 20.1768 28.7117 22.4873 25.5944 25.6053C22.4772 28.7234 20.1677 32.5549 18.8664 36.7675C17.565 40.9801 17.3111 45.4466 18.1266 49.7796C13.9662 51.2401 10.225 53.6937 7.22755 56.9274C4.23008 60.1611 2.06685 64.0774 0.925552 68.3364C-0.215747 72.5954 -0.300674 77.0686 0.678166 81.3679C1.65701 85.6671 3.67008 89.6627 6.54266 93.0078C3.6692 96.3529 1.65551 100.349 0.676395 104.648C-0.302723 108.948 -0.217723 113.422 0.924076 117.681C2.06588 121.941 4.22994 125.857 7.22844 129.09C10.2269 132.324 13.9693 134.777 18.1306 136.236C17.3144 140.569 17.568 145.036 18.8696 149.249C20.1711 153.462 22.4811 157.293 25.5992 160.411C28.7172 163.528 32.549 165.838 36.762 167.139C40.975 168.44 45.4419 168.693 49.7749 167.876C51.2354 172.037 53.689 175.778 56.9227 178.775C60.1564 181.773 64.0726 183.936 68.3317 185.077C72.5907 186.219 77.0639 186.303 81.3631 185.325C85.6624 184.346 89.658 182.333 93.0031 179.46C96.3482 182.334 100.344 184.347 104.644 185.326C108.943 186.306 113.417 186.221 117.676 185.079C121.936 183.937 125.852 181.773 129.086 178.774C132.319 175.776 134.772 172.034 136.231 167.872C140.565 168.688 145.031 168.434 149.244 167.133C153.457 165.831 157.289 163.521 160.407 160.403C163.525 157.286 165.835 153.454 167.136 149.241C168.438 145.028 168.692 140.561 167.876 136.228C172.036 134.768 175.778 132.314 178.775 129.08C181.773 125.847 183.936 121.93 185.077 117.671C186.218 113.411 186.302 108.938 185.323 104.639C184.343 100.34 182.329 96.3443 179.456 92.9997Z" fill="#18C07A"/>
<path d="M76.3018 128.501L50.4575 102.673C49.4767 101.691 48.9258 100.359 48.9258 98.9712C48.9258 97.583 49.4767 96.2515 50.4575 95.2691L53.5974 92.1253C54.5798 91.1444 55.9112 90.5935 57.2995 90.5935C58.6877 90.5935 60.0192 91.1444 61.0016 92.1253L79.7882 110.9L124.032 63.8828C124.984 62.8727 126.298 62.2816 127.686 62.2393C129.073 62.1969 130.421 62.7069 131.432 63.6571L134.657 66.7002C135.668 67.6524 136.26 68.9672 136.302 70.3556C136.345 71.744 135.834 73.0924 134.883 74.1044L83.8309 128.385C83.3503 128.897 82.7715 129.307 82.129 129.591C81.4865 129.875 80.7935 130.028 80.0911 130.038C79.3887 130.049 78.6913 129.919 78.0403 129.655C77.3893 129.391 76.7981 128.999 76.3018 128.501Z" fill="white"/>
</svg>
