<svg width="83" height="82" viewBox="0 0 83 82" fill="none" xmlns="http://www.w3.org/2000/svg">
<g id="letter (1) 1" clip-path="url(#clip0_1119_5968)">
<path id="Vector" d="M0.659912 32.5445L41.5 8.29565L82.3401 32.5445V68.2795H0.659912V32.5445Z" fill="#E59D1F"/>
<g id="Group 31353">
<path id="Vector_2" d="M9.59281 10.0823H73.4053C74.8093 10.0823 75.9578 11.2309 75.9578 12.6348V57.3035C75.9578 58.7075 74.8093 59.856 73.4053 59.856H9.59281C8.18887 59.856 7.04028 58.7075 7.04028 57.3035V12.6348C7.04045 11.231 8.18903 10.0823 9.59281 10.0823Z" fill="#F4FCFF"/>
<path id="Vector_3" d="M68.0463 15.1873L72.1303 10.0823H73.4065C74.8105 10.0823 75.959 11.2309 75.959 12.6348V15.1873H68.0463ZM34.8638 15.1873L38.9478 10.0823H47.8814L43.7974 15.1873H34.8638ZM7.0415 15.1873V12.6348C7.0415 11.2309 8.19009 10.0823 9.59403 10.0823H15.9753L11.8912 15.1873H7.0415Z" fill="#89B4FF"/>
<path id="Vector_4" d="M26.6316 32.7357L27.1421 35.4159L23.0581 29.0346L17.315 37.9683C17.2512 38.7979 20.9523 39.4359 25.5468 39.4359C30.1413 39.4359 33.8424 38.7979 33.8424 37.9683L28.8012 30.5022L26.6316 32.7357ZM27.1421 29.226C28.0355 29.226 28.7374 28.5241 28.7374 27.6307C28.7374 26.7373 28.0355 26.0354 27.1421 26.0354C26.2487 26.0354 25.5468 26.7373 25.5468 27.6307C25.5468 28.5241 26.2487 29.226 27.1421 29.226ZM40.2238 28.5879H65.7487C66.4506 28.5879 67.025 28.0136 67.025 27.3117C67.025 26.6098 66.4506 26.0354 65.7487 26.0354H40.2238C39.5219 26.0354 38.9475 26.6098 38.9475 27.3117C38.9475 28.0136 39.5217 28.5879 40.2238 28.5879ZM65.7487 31.1405H40.2238C39.5219 31.1405 38.9475 31.7148 38.9475 32.4167C38.9475 33.1186 39.5219 33.693 40.2238 33.693H65.7487C66.4506 33.693 67.025 33.1186 67.025 32.4167C67.025 31.7147 66.4506 31.1405 65.7487 31.1405ZM59.3674 36.2453H40.2238C39.5219 36.2453 38.9475 36.8197 38.9475 37.5216C38.9475 38.2235 39.5219 38.7979 40.2238 38.7979H59.3675C60.0694 38.7979 60.6438 38.2235 60.6438 37.5216C60.6436 36.8197 60.0694 36.2453 59.3674 36.2453Z" fill="#D0DBE8"/>
<path id="Vector_5" d="M51.4552 15.1873L55.5392 10.0823H64.4729L60.3889 15.1873H51.4552ZM18.2727 15.1873L22.3567 10.0823H31.2904L27.2064 15.1873H18.2727Z" fill="#EE7875"/>
</g>
<g id="Group 31352">
<path id="Vector_6" d="M82.3399 75.9369C82.3399 78.0427 80.617 79.7657 78.5111 79.7657H4.4887C2.38288 79.7658 0.659912 78.0427 0.659912 75.9369V32.5444L41.5 50.412L82.3401 32.5444V75.9369H82.3399Z" fill="#FEDE98"/>
<path id="Vector_7" d="M82.3399 75.937C82.3399 78.0429 80.617 79.7658 78.5111 79.7658H4.4887C2.38288 79.766 0.659912 78.0429 0.659912 75.937V68.2795L82.3399 32.5444V75.937Z" fill="#FECA57"/>
</g>
</g>
<defs>
<clipPath id="clip0_1119_5968">
<rect width="81.6802" height="81.6802" fill="white" transform="translate(0.659912)"/>
</clipPath>
</defs>
</svg>
