<svg width="39" height="28" viewBox="0 0 39 28" fill="none" xmlns="http://www.w3.org/2000/svg">
<rect x="0.15" y="0.15" width="38.7" height="27.7" rx="2.85" fill="white" stroke="black" stroke-width="0.3"/>
<path d="M9 8.25C9 7.55381 9.27656 6.88613 9.76884 6.39384C10.2611 5.90156 10.9288 5.625 11.625 5.625H27.375C28.0712 5.625 28.7389 5.90156 29.2312 6.39384C29.7234 6.88613 30 7.55381 30 8.25V9.5625H9V8.25ZM9 12.1875V18.75C9 19.4462 9.27656 20.1139 9.76884 20.6062C10.2611 21.0984 10.9288 21.375 11.625 21.375H27.375C28.0712 21.375 28.7389 21.0984 29.2312 20.6062C29.7234 20.1139 30 19.4462 30 18.75V12.1875H9ZM12.9375 14.8125H14.25C14.5981 14.8125 14.9319 14.9508 15.1781 15.1969C15.4242 15.4431 15.5625 15.7769 15.5625 16.125V17.4375C15.5625 17.7856 15.4242 18.1194 15.1781 18.3656C14.9319 18.6117 14.5981 18.75 14.25 18.75H12.9375C12.5894 18.75 12.2556 18.6117 12.0094 18.3656C11.7633 18.1194 11.625 17.7856 11.625 17.4375V16.125C11.625 15.7769 11.7633 15.4431 12.0094 15.1969C12.2556 14.9508 12.5894 14.8125 12.9375 14.8125Z" fill="black"/>
</svg>
